<svg width="633" height="633" viewBox="0 0 633 633" fill="none" xmlns="http://www.w3.org/2000/svg">
<path d="M341.636 346.771C353.071 335.693 381.762 320.856 405.047 350.128L341.636 346.771Z" fill="#F5DEB3"/>
<path d="M269.541 344.435C257.441 334.088 227.885 321.059 206.46 351.719L269.541 344.435Z" fill="#F5DEB3"/>
<path d="M302 485.5C357 485.5 349.5 469.389 363.5 462C398.766 443.387 453.706 387.348 466.271 336.186L467 333C466.776 334.06 466.533 335.122 466.271 336.186L437.5 462C419.5 503.333 381.2 561.6 302 552C222.8 542.4 187 461 179 410L249.5 462C263.5 462 243.534 485.5 302 485.5Z" fill="#F5DEB3"/>
<path d="M428.612 320.415C437.5 296 337 273.5 319 312C349.54 310.724 411.465 306.805 428.612 320.415Z" fill="#F5DEB3"/>
<path d="M172.34 333.533C159.139 311.155 253.83 270.659 278.566 305.219C248.308 309.548 186.711 317.017 172.34 333.533Z" fill="#F5DEB3"/>
<path d="M285 435C265.8 430.2 228 464.667 221 480L252 508C251.667 498.667 251.2 478 252 470C253 460 301 460 312 460C323 460 340 454 357 460C370.6 464.8 383.333 475.333 388 480C395.333 474.333 408.8 461.2 404 454C398 445 335 422 324 435C313 448 309 441 285 435Z" fill="#F5DEB3"/>
<path d="M160.867 227.554C148.367 249.054 160.867 324.054 160.867 332.554C148.367 323.054 132.367 248.554 135.367 227.554C138.367 206.554 166.618 144.032 208.367 128.054C248.867 112.554 312.367 105.054 367.867 113.554C423.367 122.054 467.367 159.554 474.867 177.554C482.367 195.554 489.867 249.554 490.867 260.054C491.867 270.554 458.867 381.054 461.367 342.054C463.867 303.054 428.367 183.554 418.867 190.054C409.367 196.554 316.867 209.054 302.867 211.554C288.867 214.054 198.867 176.554 192.867 177.554C186.867 178.554 173.367 206.054 160.867 227.554Z" fill="#F5DEB3"/>
<path d="M373.55 214.84C346.12 214.113 290.818 189.781 266.597 177.707C261.483 179.62 256.049 187.22 275.218 202.317C299.18 221.187 407.839 215.749 373.55 214.84Z" fill="#F5DEB3"/>
<path d="M311.899 232.441C286.284 222.6 242.274 181.206 223.472 161.74C218.013 161.837 210.354 167.188 223.385 187.816C239.674 213.602 343.917 244.742 311.899 232.441Z" fill="#F5DEB3"/>
<path d="M414.55 201.84C387.12 201.113 331.818 176.781 307.597 164.707C302.483 166.62 297.049 174.22 316.218 189.317C340.18 208.187 448.839 202.749 414.55 201.84Z" fill="#F5DEB3"/>
<g filter="url(#filter0_d_0_1)">
<circle cx="316.5" cy="312.5" r="310.5" stroke="#F5DEB3" stroke-width="4" shape-rendering="crispEdges"/>
</g>
<circle cx="316.5" cy="312.5" r="290.5" stroke="#F5DEB3" stroke-width="2"/>
<defs>
<filter id="filter0_d_0_1" x="0" y="0" width="633" height="633" filterUnits="userSpaceOnUse" color-interpolation-filters="sRGB">
<feFlood flood-opacity="0" result="BackgroundImageFix"/>
<feColorMatrix in="SourceAlpha" type="matrix" values="0 0 0 0 0 0 0 0 0 0 0 0 0 0 0 0 0 0 127 0" result="hardAlpha"/>
<feOffset dy="4"/>
<feGaussianBlur stdDeviation="2"/>
<feComposite in2="hardAlpha" operator="out"/>
<feColorMatrix type="matrix" values="0 0 0 0 0 0 0 0 0 0 0 0 0 0 0 0 0 0 0.25 0"/>
<feBlend mode="normal" in2="BackgroundImageFix" result="effect1_dropShadow_0_1"/>
<feBlend mode="normal" in="SourceGraphic" in2="effect1_dropShadow_0_1" result="shape"/>
</filter>
</defs>
</svg>
